<svg width="466" height="74" viewBox="0 0 466 74" fill="none" xmlns="http://www.w3.org/2000/svg">
<path d="M21.61 55.9428V73.8151L0 42.127L21.61 55.9428Z" fill="#0DAFD2"/>
<path d="M43.2209 42.127L21.6094 73.8151V55.9428L43.2209 42.127Z" fill="#667BBC"/>
<path d="M43.2209 37.662L21.6094 25.3345V51.4793L43.2209 37.662Z" fill="#9E69AC"/>
<path d="M43.2209 37.662L21.6094 0V25.3345L43.2209 37.662Z" fill="#F58B77"/>
<path d="M21.61 0V25.3345L0 37.662L21.61 0Z" fill="#F9EC7B"/>
<path d="M21.61 25.3345V51.4793L0 37.662L21.61 25.3345Z" fill="#54BC7A"/>
<path d="M65.1504 19.2365C65.1504 17.8119 65.4422 16.5504 66.0257 15.4519C66.6093 14.3534 67.4246 13.5038 68.4716 12.903C69.5186 12.3023 70.7286 12.0019 72.1017 12.0019C73.4233 12.0019 74.5991 12.3109 75.6289 12.9288C76.6759 13.5467 77.4912 14.4135 78.0747 15.5291C78.6583 16.6448 78.9501 17.9149 78.9501 19.3395V20.4208H68.832C68.8835 21.279 69.2096 21.9741 69.8104 22.5062C70.4111 23.0383 71.2006 23.3043 72.179 23.3043C72.8655 23.3043 73.5006 23.1584 74.0842 22.8666C74.6677 22.5577 75.3028 22.0342 75.9893 21.2962L78.2807 23.639C77.4912 24.5144 76.5815 25.2009 75.5517 25.6987C74.5218 26.1793 73.3976 26.4196 72.179 26.4196C70.7887 26.4196 69.5615 26.1192 68.4973 25.5185C67.4332 24.9177 66.6093 24.0767 66.0257 22.9954C65.4422 21.8969 65.1504 20.6439 65.1504 19.2365ZM75.2427 17.7432C75.1741 16.988 74.8394 16.3616 74.2386 15.8638C73.6551 15.3661 72.9428 15.1172 72.1017 15.1172C71.2264 15.1172 70.5055 15.3575 69.9391 15.8381C69.3727 16.3186 69.0208 16.9537 68.8835 17.7432H75.2427Z" fill="#989898"/>
<path d="M90.8547 15.6836V21.1674C90.8547 21.6308 90.9577 21.9655 91.1636 22.1715C91.3868 22.3775 91.7472 22.4805 92.2449 22.4805H95.3602V26.0334H91.9103C90.3998 26.0334 89.2327 25.6815 88.4088 24.9778C87.585 24.2569 87.173 23.2357 87.173 21.9141V15.6836H83.8261V12.3881H87.173V8.91246H90.8547V12.3881H96.2098V15.6836H90.8547Z" fill="#989898"/>
<path d="M101.601 7.23899H105.282V13.6497H105.334C106.295 12.5512 107.608 12.0019 109.273 12.0019C110.268 12.0019 111.152 12.2422 111.925 12.7228C112.697 13.2034 113.298 13.8814 113.727 14.7567C114.156 15.6321 114.371 16.6448 114.371 17.7947V26.0334H110.689V18.2839C110.689 17.3742 110.457 16.6619 109.994 16.147C109.53 15.6321 108.895 15.3746 108.089 15.3746C107.213 15.3746 106.527 15.6321 106.029 16.147C105.531 16.6448 105.282 17.3399 105.282 18.2324V26.0334H101.601V7.23899Z" fill="#989898"/>
<path d="M118.86 19.2365C118.86 17.8119 119.152 16.5504 119.736 15.4519C120.319 14.3534 121.135 13.5038 122.182 12.903C123.229 12.3023 124.439 12.0019 125.812 12.0019C127.133 12.0019 128.309 12.3109 129.339 12.9288C130.386 13.5467 131.201 14.4135 131.785 15.5291C132.368 16.6448 132.66 17.9149 132.66 19.3395V20.4208H122.542C122.594 21.279 122.92 21.9741 123.52 22.5062C124.121 23.0383 124.911 23.3043 125.889 23.3043C126.576 23.3043 127.211 23.1584 127.794 22.8666C128.378 22.5577 129.013 22.0342 129.699 21.2962L131.991 23.639C131.201 24.5144 130.291 25.2009 129.262 25.6987C128.232 26.1793 127.108 26.4196 125.889 26.4196C124.499 26.4196 123.271 26.1192 122.207 25.5185C121.143 24.9177 120.319 24.0767 119.736 22.9954C119.152 21.8969 118.86 20.6439 118.86 19.2365ZM128.953 17.7432C128.884 16.988 128.549 16.3616 127.949 15.8638C127.365 15.3661 126.653 15.1172 125.812 15.1172C124.936 15.1172 124.215 15.3575 123.649 15.8381C123.083 16.3186 122.731 16.9537 122.594 17.7432H128.953Z" fill="#989898"/>
<path d="M138.411 12.3881H141.939V13.6497H141.99C142.574 13.0661 143.174 12.6456 143.792 12.3881C144.427 12.1307 145.148 12.0019 145.955 12.0019C147.139 12.0019 148.16 12.3538 149.019 13.0575C149.877 13.7441 150.478 14.6881 150.821 15.8896L147.371 17.0224C146.976 15.9067 146.161 15.3489 144.925 15.3489C143.998 15.3489 143.295 15.6235 142.814 16.1728C142.333 16.7048 142.093 17.4429 142.093 18.3869V26.0334H138.411V12.3881Z" fill="#989898"/>
<path d="M154.667 19.2365C154.667 17.8119 154.959 16.5504 155.542 15.4519C156.126 14.3534 156.941 13.5038 157.988 12.903C159.035 12.3023 160.245 12.0019 161.618 12.0019C162.94 12.0019 164.116 12.3109 165.146 12.9288C166.193 13.5467 167.008 14.4135 167.591 15.5291C168.175 16.6448 168.467 17.9149 168.467 19.3395V20.4208H158.349C158.4 21.279 158.726 21.9741 159.327 22.5062C159.928 23.0383 160.717 23.3043 161.696 23.3043C162.382 23.3043 163.017 23.1584 163.601 22.8666C164.184 22.5577 164.819 22.0342 165.506 21.2962L167.797 23.639C167.008 24.5144 166.098 25.2009 165.068 25.6987C164.039 26.1793 162.914 26.4196 161.696 26.4196C160.305 26.4196 159.078 26.1192 158.014 25.5185C156.95 24.9177 156.126 24.0767 155.542 22.9954C154.959 21.8969 154.667 20.6439 154.667 19.2365ZM164.759 17.7432C164.691 16.988 164.356 16.3616 163.755 15.8638C163.172 15.3661 162.459 15.1172 161.618 15.1172C160.743 15.1172 160.022 15.3575 159.456 15.8381C158.889 16.3186 158.538 16.9537 158.4 17.7432H164.759Z" fill="#989898"/>
<path d="M173.343 21.3991V12.3881H177.024V20.5495C177.024 22.2144 177.848 23.0469 179.496 23.0469C180.234 23.0469 180.818 22.8237 181.247 22.3775C181.693 21.9141 181.916 21.3047 181.916 20.5495V12.3881H185.598V26.0334H182.071V24.8233H182.019C181.641 25.3039 181.118 25.6901 180.449 25.9819C179.796 26.2737 179.11 26.4196 178.389 26.4196C176.776 26.4196 175.531 25.9819 174.656 25.1065C173.78 24.214 173.343 22.9782 173.343 21.3991Z" fill="#989898"/>
<path d="M190.088 12.3881H193.331V13.5724H193.383C193.675 13.109 194.044 12.7572 194.49 12.5169C194.953 12.2594 195.46 12.1307 196.009 12.1307C197.09 12.1307 197.957 12.637 198.609 13.6497H198.661C199.347 12.637 200.291 12.1307 201.493 12.1307C202.488 12.1307 203.295 12.4825 203.913 13.1863C204.531 13.89 204.84 14.8082 204.84 15.941V26.0334H201.441V16.5847C201.441 16.1899 201.338 15.8896 201.132 15.6836C200.926 15.4776 200.635 15.3746 200.257 15.3746C199.897 15.3746 199.605 15.4948 199.382 15.7351C199.176 15.9582 199.073 16.2672 199.073 16.6619V26.0334H195.855V16.5847C195.855 16.2071 195.752 15.9153 195.546 15.7093C195.357 15.4862 195.082 15.3746 194.722 15.3746C194.344 15.3746 194.044 15.4948 193.821 15.7351C193.598 15.9582 193.486 16.2672 193.486 16.6619V26.0334H190.088V12.3881Z" fill="#989898"/>
<path d="M230.4 17.2026H226.795V13.9071H230.4V11.899C230.4 10.6975 230.794 9.75349 231.584 9.06694C232.391 8.36322 233.498 8.01136 234.905 8.01136H238.87V11.2811H235.343C234.982 11.2811 234.708 11.3755 234.519 11.5643C234.33 11.7531 234.236 12.0191 234.236 12.3624V13.9071H239.694V17.2026H234.236V26.0334H230.4V17.2026Z" fill="#989898"/>
<path d="M244.184 19.2108C244.184 17.8033 244.476 16.5589 245.059 15.4776C245.643 14.3791 246.458 13.5295 247.505 12.9288C248.569 12.3109 249.779 12.0019 251.135 12.0019C252.508 12.0019 253.718 12.3109 254.765 12.9288C255.829 13.5295 256.653 14.3791 257.237 15.4776C257.82 16.5589 258.112 17.8033 258.112 19.2108C258.112 20.6182 257.82 21.8711 257.237 22.9696C256.653 24.0509 255.829 24.9006 254.765 25.5185C253.718 26.1192 252.508 26.4196 251.135 26.4196C249.779 26.4196 248.569 26.1192 247.505 25.5185C246.458 24.9006 245.643 24.0509 245.059 22.9696C244.476 21.8711 244.184 20.6182 244.184 19.2108ZM254.431 19.2108C254.431 18.0093 254.139 17.0739 253.555 16.4045C252.989 15.7179 252.182 15.3746 251.135 15.3746C250.105 15.3746 249.299 15.7179 248.715 16.4045C248.149 17.0739 247.865 18.0093 247.865 19.2108C247.865 20.4122 248.149 21.3562 248.715 22.0428C249.299 22.7122 250.105 23.0469 251.135 23.0469C252.165 23.0469 252.972 22.7036 253.555 22.017C254.139 21.3305 254.431 20.3951 254.431 19.2108Z" fill="#989898"/>
<path d="M262.859 21.3991V12.3881H266.541V20.5495C266.541 22.2144 267.365 23.0469 269.013 23.0469C269.751 23.0469 270.334 22.8237 270.763 22.3775C271.21 21.9141 271.433 21.3047 271.433 20.5495V12.3881H275.114V26.0334H271.587V24.8233H271.536C271.158 25.3039 270.635 25.6901 269.965 25.9819C269.313 26.2737 268.626 26.4196 267.906 26.4196C266.292 26.4196 265.048 25.9819 264.172 25.1065C263.297 24.214 262.859 22.9782 262.859 21.3991Z" fill="#989898"/>
<path d="M280.634 12.3881H284.316V13.6754H284.367C284.916 13.1262 285.509 12.7142 286.144 12.4396C286.779 12.1478 287.5 12.0019 288.306 12.0019C289.199 12.0019 290.031 12.2165 290.804 12.6456C291.576 13.0575 292.202 13.7012 292.683 14.5765C293.164 15.4347 293.404 16.5075 293.404 17.7947V26.0334H289.722V18.2839C289.722 17.4086 289.499 16.7048 289.053 16.1728C288.607 15.6407 287.963 15.3746 287.122 15.3746C286.247 15.3746 285.56 15.6321 285.062 16.147C284.565 16.6448 284.316 17.3399 284.316 18.2324V26.0334H280.634V12.3881Z" fill="#989898"/>
<path d="M297.611 19.2108C297.611 17.8376 297.877 16.6019 298.409 15.5034C298.941 14.4049 299.687 13.5467 300.649 12.9288C301.61 12.3109 302.7 12.0019 303.918 12.0019C305.463 12.0019 306.673 12.4139 307.548 13.2377H307.6V7.23899H311.281V26.0334H307.883V24.8491H307.832C306.819 25.8961 305.497 26.4196 303.867 26.4196C302.665 26.4196 301.584 26.1192 300.623 25.5185C299.679 24.9177 298.941 24.0767 298.409 22.9954C297.877 21.8969 297.611 20.6353 297.611 19.2108ZM307.6 20.0861V18.3097C307.6 17.7947 307.463 17.3142 307.188 16.8679C306.913 16.4216 306.527 16.0612 306.029 15.7866C305.549 15.5119 305.008 15.3746 304.407 15.3746C303.446 15.3746 302.682 15.7265 302.116 16.4302C301.567 17.1168 301.292 18.0436 301.292 19.2108C301.292 20.3607 301.575 21.2876 302.142 21.9913C302.708 22.695 303.455 23.0469 304.382 23.0469C305.308 23.0469 306.072 22.7637 306.673 22.1973C307.291 21.6137 307.6 20.91 307.6 20.0861Z" fill="#989898"/>
<path d="M316.647 22.3775C316.647 21.1074 317.076 20.1204 317.934 19.4167C318.809 18.713 320.26 18.1981 322.285 17.872C323.349 17.7003 324.07 17.5115 324.448 17.3056C324.842 17.0824 325.04 16.7907 325.04 16.4302C325.04 16.0183 324.851 15.6922 324.473 15.4519C324.096 15.2116 323.581 15.0914 322.929 15.0914C322.191 15.0914 321.547 15.3146 320.998 15.7608C320.466 16.2071 320.122 16.7992 319.968 17.5373L316.544 16.7649C316.715 15.8381 317.102 15.0142 317.702 14.2933C318.303 13.5724 319.058 13.0146 319.968 12.6198C320.878 12.2079 321.864 12.0019 322.929 12.0019C324.679 12.0019 326.078 12.4911 327.125 13.4695C328.172 14.4478 328.696 15.7522 328.696 17.3828V26.0334H325.4V24.5144H325.349C324.954 25.1151 324.396 25.5871 323.675 25.9304C322.972 26.2565 322.173 26.4196 321.281 26.4196C320.388 26.4196 319.59 26.2479 318.887 25.9046C318.183 25.5614 317.634 25.0808 317.239 24.4629C316.844 23.845 316.647 23.1498 316.647 22.3775ZM325.194 20.9615V19.4167H325.143C324.988 19.6742 324.731 19.8801 324.37 20.0346C324.01 20.1891 323.444 20.3436 322.671 20.498C321.71 20.704 321.049 20.9271 320.689 21.1674C320.328 21.3906 320.148 21.7081 320.148 22.12C320.148 22.5148 320.303 22.8152 320.612 23.0211C320.938 23.2271 321.401 23.3301 322.002 23.3301C322.551 23.3301 323.075 23.2271 323.572 23.0211C324.07 22.798 324.465 22.5062 324.757 22.1458C325.048 21.7682 325.194 21.3734 325.194 20.9615Z" fill="#989898"/>
<path d="M341.501 15.6836V21.1674C341.501 21.6308 341.604 21.9655 341.81 22.1715C342.033 22.3775 342.394 22.4805 342.892 22.4805H346.007V26.0334H342.557C341.047 26.0334 339.879 25.6815 339.055 24.9778C338.232 24.2569 337.82 23.2357 337.82 21.9141V15.6836H334.473V12.3881H337.82V8.91246H341.501V12.3881H346.856V15.6836H341.501Z" fill="#989898"/>
<path d="M365.275 22.6607V26.0334H351.861V22.6607H356.727V15.7608H352.119V12.3881H360.409V22.6607H365.275ZM356.65 6.62109H360.435V10.2512H356.65V6.62109Z" fill="#989898"/>
<path d="M369.507 19.2108C369.507 17.8033 369.799 16.5589 370.382 15.4776C370.966 14.3791 371.781 13.5295 372.828 12.9288C373.892 12.3109 375.102 12.0019 376.458 12.0019C377.832 12.0019 379.042 12.3109 380.089 12.9288C381.153 13.5295 381.977 14.3791 382.56 15.4776C383.144 16.5589 383.435 17.8033 383.435 19.2108C383.435 20.6182 383.144 21.8711 382.56 22.9696C381.977 24.0509 381.153 24.9006 380.089 25.5185C379.042 26.1192 377.832 26.4196 376.458 26.4196C375.102 26.4196 373.892 26.1192 372.828 25.5185C371.781 24.9006 370.966 24.0509 370.382 22.9696C369.799 21.8711 369.507 20.6182 369.507 19.2108ZM379.754 19.2108C379.754 18.0093 379.462 17.0739 378.878 16.4045C378.312 15.7179 377.505 15.3746 376.458 15.3746C375.429 15.3746 374.622 15.7179 374.038 16.4045C373.472 17.0739 373.189 18.0093 373.189 19.2108C373.189 20.4122 373.472 21.3562 374.038 22.0428C374.622 22.7122 375.429 23.0469 376.458 23.0469C377.488 23.0469 378.295 22.7036 378.878 22.017C379.462 21.3305 379.754 20.3951 379.754 19.2108Z" fill="#989898"/>
<path d="M388.054 12.3881H391.736V13.6754H391.787C392.336 13.1262 392.929 12.7142 393.564 12.4396C394.199 12.1478 394.92 12.0019 395.726 12.0019C396.619 12.0019 397.451 12.2165 398.224 12.6456C398.996 13.0575 399.622 13.7012 400.103 14.5765C400.584 15.4347 400.824 16.5075 400.824 17.7947V26.0334H397.142V18.2839C397.142 17.4086 396.919 16.7048 396.473 16.1728C396.027 15.6407 395.383 15.3746 394.542 15.3746C393.667 15.3746 392.98 15.6321 392.482 16.147C391.985 16.6448 391.736 17.3399 391.736 18.2324V26.0334H388.054V12.3881Z" fill="#989898"/>
<path d="M65.6211 52.9124C65.6211 51.0126 66.0102 49.3303 66.7884 47.8655C67.5666 46.4006 68.6538 45.2677 70.05 44.4666C71.4462 43.6655 73.0598 43.2649 74.8909 43.2649C76.6533 43.2649 78.2211 43.6769 79.5944 44.5009C80.9906 45.3249 82.0778 46.4807 82.856 47.9685C83.6342 49.4562 84.0233 51.15 84.0233 53.0497V54.4917H70.5306C70.5993 55.6361 71.0342 56.5631 71.8353 57.2726C72.6364 57.9821 73.6892 58.3369 74.9939 58.3369C75.9094 58.3369 76.7563 58.1424 77.5345 57.7533C78.3127 57.3413 79.1596 56.6432 80.0751 55.659L83.1307 58.7832C82.0778 59.9505 80.8647 60.8661 79.4914 61.5298C78.1181 62.1707 76.6189 62.4911 74.9939 62.4911C73.1399 62.4911 71.5034 62.0906 70.0843 61.2895C68.6652 60.4884 67.5666 59.3669 66.7884 57.9249C66.0102 56.4601 65.6211 54.7892 65.6211 52.9124ZM79.0794 50.9211C78.9879 49.914 78.5416 49.0786 77.7405 48.4148C76.9623 47.751 76.0124 47.4192 74.8909 47.4192C73.7236 47.4192 72.7623 47.7396 72.0069 48.3805C71.2516 49.0213 70.7824 49.8682 70.5993 50.9211H79.0794Z" fill="white"/>
<path d="M89.4956 52.878C89.4956 51.0012 89.8847 49.3418 90.6629 47.8998C91.4411 46.435 92.5283 45.302 93.9245 44.5009C95.3436 43.6769 96.9572 43.2649 98.7654 43.2649C100.894 43.2649 102.725 43.8486 104.259 45.0159C105.792 46.1832 106.834 47.751 107.383 49.7194L102.645 51.0241C102.416 50.017 101.981 49.2273 101.34 48.6551C100.699 48.06 99.8411 47.7625 98.7654 47.7625C97.3921 47.7625 96.3163 48.2203 95.5381 49.1358C94.7828 50.0284 94.4052 51.2758 94.4052 52.878C94.4052 54.4802 94.7828 55.7391 95.5381 56.6546C96.3163 57.5473 97.3921 57.9936 98.7654 57.9936C99.8411 57.9936 100.699 57.7075 101.34 57.1353C101.981 56.5402 102.416 55.7391 102.645 54.732L107.383 56.0366C106.834 58.005 105.792 59.5729 104.259 60.7402C102.725 61.9075 100.894 62.4911 98.7654 62.4911C96.9572 62.4911 95.3436 62.0906 93.9245 61.2895C92.5283 60.4655 91.4411 59.3325 90.6629 57.8906C89.8847 56.4257 89.4956 54.7549 89.4956 52.878Z" fill="white"/>
<path d="M113.37 52.878C113.37 51.0012 113.759 49.3418 114.537 47.8998C115.316 46.435 116.403 45.302 117.799 44.5009C119.218 43.6769 120.832 43.2649 122.64 43.2649C124.471 43.2649 126.085 43.6769 127.481 44.5009C128.9 45.302 129.999 46.435 130.777 47.8998C131.555 49.3418 131.944 51.0012 131.944 52.878C131.944 54.7549 131.555 56.4257 130.777 57.8906C129.999 59.3325 128.9 60.4655 127.481 61.2895C126.085 62.0906 124.471 62.4911 122.64 62.4911C120.832 62.4911 119.218 62.0906 117.799 61.2895C116.403 60.4655 115.316 59.3325 114.537 57.8906C113.759 56.4257 113.37 54.7549 113.37 52.878ZM127.034 52.878C127.034 51.2758 126.645 50.0284 125.867 49.1358C125.112 48.2203 124.036 47.7625 122.64 47.7625C121.267 47.7625 120.191 48.2203 119.413 49.1358C118.657 50.0284 118.28 51.2758 118.28 52.878C118.28 54.4802 118.657 55.7391 119.413 56.6546C120.191 57.5473 121.267 57.9936 122.64 57.9936C124.013 57.9936 125.089 57.5358 125.867 56.6203C126.645 55.7047 127.034 54.4573 127.034 52.878Z" fill="white"/>
<path d="M137.725 55.968L142.189 54.938C142.509 56.0824 143.081 56.9636 143.905 57.5816C144.752 58.1767 145.816 58.4742 147.098 58.4742C148.242 58.4742 149.112 58.3369 149.707 58.0622C150.325 57.7876 150.634 57.3985 150.634 56.8949C150.634 56.3227 150.325 55.8878 149.707 55.5903C149.089 55.2699 147.956 54.9494 146.308 54.629C143.608 54.1254 141.674 53.4274 140.506 52.5347C139.362 51.6421 138.79 50.4175 138.79 48.8611C138.79 47.7625 139.11 46.7897 139.751 45.9429C140.392 45.096 141.284 44.4437 142.429 43.9859C143.596 43.5052 144.924 43.2649 146.411 43.2649C148.448 43.2649 150.257 43.7685 151.836 44.7756C153.415 45.7826 154.48 47.1216 155.029 48.7925L150.806 50.1658C150.463 49.2502 149.902 48.5407 149.124 48.0371C148.368 47.5336 147.453 47.2818 146.377 47.2818C145.484 47.2818 144.775 47.4306 144.248 47.7282C143.722 48.0028 143.459 48.3919 143.459 48.8955C143.459 49.3532 143.745 49.7309 144.317 50.0284C144.912 50.3031 145.977 50.5778 147.51 50.8524C150.302 51.3788 152.294 52.1113 153.484 53.0497C154.697 53.9652 155.304 55.247 155.304 56.8949C155.304 58.0165 154.96 59.0007 154.274 59.8475C153.61 60.6944 152.649 61.3467 151.39 61.8045C150.154 62.2623 148.723 62.4911 147.098 62.4911C144.626 62.4911 142.566 61.9189 140.918 60.7745C139.293 59.6301 138.229 58.0279 137.725 55.968Z" fill="white"/>
<path d="M167.951 61.2552L160.707 43.7799H165.857L170.389 55.4186H170.458L174.955 43.7799H180.105L169.531 69.701H164.415L167.951 61.2552Z" fill="white"/>
<path d="M185.474 55.968L189.938 54.938C190.258 56.0824 190.83 56.9636 191.654 57.5816C192.501 58.1767 193.565 58.4742 194.847 58.4742C195.992 58.4742 196.861 58.3369 197.456 58.0622C198.074 57.7876 198.383 57.3985 198.383 56.8949C198.383 56.3227 198.074 55.8878 197.456 55.5903C196.838 55.2699 195.705 54.9494 194.057 54.629C191.357 54.1254 189.423 53.4274 188.255 52.5347C187.111 51.6421 186.539 50.4175 186.539 48.8611C186.539 47.7625 186.859 46.7897 187.5 45.9429C188.141 45.096 189.033 44.4437 190.178 43.9859C191.345 43.5052 192.673 43.2649 194.16 43.2649C196.198 43.2649 198.006 43.7685 199.585 44.7756C201.164 45.7826 202.229 47.1216 202.778 48.7925L198.555 50.1658C198.212 49.2502 197.651 48.5407 196.873 48.0371C196.117 47.5336 195.202 47.2818 194.126 47.2818C193.233 47.2818 192.524 47.4306 191.998 47.7282C191.471 48.0028 191.208 48.3919 191.208 48.8955C191.208 49.3532 191.494 49.7309 192.066 50.0284C192.661 50.3031 193.726 50.5778 195.259 50.8524C198.051 51.3788 200.043 52.1113 201.233 53.0497C202.446 53.9652 203.053 55.247 203.053 56.8949C203.053 58.0165 202.709 59.0007 202.023 59.8475C201.359 60.6944 200.398 61.3467 199.139 61.8045C197.903 62.2623 196.472 62.4911 194.847 62.4911C192.375 62.4911 190.315 61.9189 188.667 60.7745C187.042 59.6301 185.978 58.0279 185.474 55.968Z" fill="white"/>
<path d="M219.271 48.1745V55.4873C219.271 56.1053 219.408 56.5516 219.683 56.8263C219.98 57.1009 220.461 57.2383 221.125 57.2383H225.279V61.9762H220.679C218.664 61.9762 217.108 61.5069 216.009 60.5685C214.911 59.6072 214.361 58.2453 214.361 56.4829V48.1745H209.898V43.7799H214.361V39.145H219.271V43.7799H226.412V48.1745H219.271Z" fill="white"/>
<path d="M232.743 52.9124C232.743 51.0126 233.132 49.3303 233.91 47.8655C234.688 46.4006 235.775 45.2677 237.172 44.4666C238.568 43.6655 240.181 43.2649 242.012 43.2649C243.775 43.2649 245.343 43.6769 246.716 44.5009C248.112 45.3249 249.199 46.4807 249.978 47.9685C250.756 49.4562 251.145 51.15 251.145 53.0497V54.4917H237.652C237.721 55.6361 238.156 56.5631 238.957 57.2726C239.758 57.9821 240.811 58.3369 242.116 58.3369C243.031 58.3369 243.878 58.1424 244.656 57.7533C245.434 57.3413 246.281 56.6432 247.197 55.659L250.252 58.7832C249.199 59.9505 247.986 60.8661 246.613 61.5298C245.24 62.1707 243.741 62.4911 242.116 62.4911C240.262 62.4911 238.625 62.0906 237.206 61.2895C235.787 60.4884 234.688 59.3669 233.91 57.9249C233.132 56.4601 232.743 54.7892 232.743 52.9124ZM246.201 50.9211C246.11 49.914 245.663 49.0786 244.862 48.4148C244.084 47.751 243.134 47.4192 242.012 47.4192C240.845 47.4192 239.884 47.7396 239.129 48.3805C238.373 49.0213 237.904 49.8682 237.721 50.9211H246.201Z" fill="white"/>
<path d="M256.102 43.7799H260.428V45.3592H260.497C260.886 44.7412 261.378 44.272 261.973 43.9516C262.591 43.6082 263.266 43.4366 263.999 43.4366C265.441 43.4366 266.597 44.1118 267.466 45.4622H267.535C268.451 44.1118 269.709 43.4366 271.312 43.4366C272.639 43.4366 273.715 43.9058 274.539 44.8442C275.363 45.7826 275.775 47.0072 275.775 48.5178V61.9762H271.243V49.3761C271.243 48.8497 271.106 48.4491 270.831 48.1745C270.556 47.8998 270.167 47.7625 269.664 47.7625C269.183 47.7625 268.794 47.9227 268.496 48.2431C268.222 48.5407 268.084 48.9527 268.084 49.4791V61.9762H263.793V49.3761C263.793 48.8726 263.655 48.4835 263.381 48.2088C263.129 47.9113 262.763 47.7625 262.282 47.7625C261.779 47.7625 261.378 47.9227 261.08 48.2431C260.783 48.5407 260.634 48.9527 260.634 49.4791V61.9762H256.102V43.7799Z" fill="white"/>
<path d="M304.847 55.968L309.31 54.938C309.631 56.0824 310.203 56.9636 311.027 57.5816C311.874 58.1767 312.938 58.4742 314.22 58.4742C315.364 58.4742 316.234 58.3369 316.829 58.0622C317.447 57.7876 317.756 57.3985 317.756 56.8949C317.756 56.3227 317.447 55.8878 316.829 55.5903C316.211 55.2699 315.078 54.9494 313.43 54.629C310.729 54.1254 308.795 53.4274 307.628 52.5347C306.483 51.6421 305.911 50.4175 305.911 48.8611C305.911 47.7625 306.232 46.7897 306.873 45.9429C307.513 45.096 308.406 44.4437 309.55 43.9859C310.718 43.5052 312.045 43.2649 313.533 43.2649C315.57 43.2649 317.378 43.7685 318.958 44.7756C320.537 45.7826 321.601 47.1216 322.151 48.7925L317.928 50.1658C317.584 49.2502 317.024 48.5407 316.245 48.0371C315.49 47.5336 314.574 47.2818 313.499 47.2818C312.606 47.2818 311.897 47.4306 311.37 47.7282C310.844 48.0028 310.58 48.3919 310.58 48.8955C310.58 49.3532 310.867 49.7309 311.439 50.0284C312.034 50.3031 313.098 50.5778 314.632 50.8524C317.424 51.3788 319.415 52.1113 320.606 53.0497C321.819 53.9652 322.425 55.247 322.425 56.8949C322.425 58.0165 322.082 59.0007 321.395 59.8475C320.731 60.6944 319.77 61.3467 318.511 61.8045C317.275 62.2623 315.845 62.4911 314.22 62.4911C311.748 62.4911 309.688 61.9189 308.04 60.7745C306.415 59.6301 305.35 58.0279 304.847 55.968Z" fill="white"/>
<path d="M329.271 55.7963V43.7799H334.18V54.6633C334.18 56.8835 335.279 57.9936 337.476 57.9936C338.46 57.9936 339.239 57.696 339.811 57.1009C340.406 56.4829 340.703 55.6704 340.703 54.6633V43.7799H345.613V61.9762H340.909V60.3625H340.841C340.337 61.0034 339.639 61.5184 338.747 61.9075C337.877 62.2966 336.961 62.4911 336 62.4911C333.848 62.4911 332.189 61.9075 331.022 60.7402C329.854 59.55 329.271 57.902 329.271 55.7963Z" fill="white"/>
<path d="M352.802 43.7799H357.505V45.3592H357.574C358.925 43.963 360.63 43.2649 362.69 43.2649C364.292 43.2649 365.722 43.6655 366.981 44.4666C368.263 45.2677 369.259 46.4006 369.968 47.8655C370.678 49.3074 371.033 50.9783 371.033 52.878C371.033 54.7091 370.678 56.3571 369.968 57.8219C369.259 59.2868 368.263 60.4312 366.981 61.2552C365.7 62.0791 364.246 62.4911 362.621 62.4911C361.591 62.4911 360.664 62.3309 359.84 62.0105C359.016 61.69 358.329 61.2552 357.78 60.7058H357.711V69.701H352.802V43.7799ZM366.123 52.878C366.123 51.3216 365.734 50.0857 364.956 49.1701C364.177 48.2317 363.102 47.7625 361.728 47.7625C360.63 47.7625 359.68 48.1516 358.879 48.9298C358.101 49.6851 357.711 50.6121 357.711 51.7107V54.0797C357.711 54.7663 357.895 55.4072 358.261 56.0023C358.627 56.5974 359.131 57.078 359.771 57.4443C360.435 57.8105 361.168 57.9936 361.969 57.9936C363.25 57.9936 364.258 57.5358 364.99 56.6203C365.745 55.6819 366.123 54.4344 366.123 52.878Z" fill="white"/>
<path d="M376.676 43.7799H381.38V45.3592H381.449C382.799 43.963 384.504 43.2649 386.564 43.2649C388.166 43.2649 389.597 43.6655 390.856 44.4666C392.138 45.2677 393.133 46.4006 393.843 47.8655C394.552 49.3074 394.907 50.9783 394.907 52.878C394.907 54.7091 394.552 56.3571 393.843 57.8219C393.133 59.2868 392.138 60.4312 390.856 61.2552C389.574 62.0791 388.121 62.4911 386.496 62.4911C385.466 62.4911 384.539 62.3309 383.715 62.0105C382.891 61.69 382.204 61.2552 381.655 60.7058H381.586V69.701H376.676V43.7799ZM389.997 52.878C389.997 51.3216 389.608 50.0857 388.83 49.1701C388.052 48.2317 386.976 47.7625 385.603 47.7625C384.504 47.7625 383.554 48.1516 382.753 48.9298C381.975 49.6851 381.586 50.6121 381.586 51.7107V54.0797C381.586 54.7663 381.769 55.4072 382.135 56.0023C382.502 56.5974 383.005 57.078 383.646 57.4443C384.31 57.8105 385.042 57.9936 385.843 57.9936C387.125 57.9936 388.132 57.5358 388.865 56.6203C389.62 55.6819 389.997 54.4344 389.997 52.878Z" fill="white"/>
<path d="M399.864 52.878C399.864 51.0012 400.253 49.3418 401.032 47.8998C401.81 46.435 402.897 45.302 404.293 44.5009C405.712 43.6769 407.326 43.2649 409.134 43.2649C410.965 43.2649 412.579 43.6769 413.975 44.5009C415.394 45.302 416.493 46.435 417.271 47.8998C418.049 49.3418 418.438 51.0012 418.438 52.878C418.438 54.7549 418.049 56.4257 417.271 57.8906C416.493 59.3325 415.394 60.4655 413.975 61.2895C412.579 62.0906 410.965 62.4911 409.134 62.4911C407.326 62.4911 405.712 62.0906 404.293 61.2895C402.897 60.4655 401.81 59.3325 401.032 57.8906C400.253 56.4257 399.864 54.7549 399.864 52.878ZM413.529 52.878C413.529 51.2758 413.14 50.0284 412.361 49.1358C411.606 48.2203 410.53 47.7625 409.134 47.7625C407.761 47.7625 406.685 48.2203 405.907 49.1358C405.152 50.0284 404.774 51.2758 404.774 52.878C404.774 54.4802 405.152 55.7391 405.907 56.6546C406.685 57.5473 407.761 57.9936 409.134 57.9936C410.507 57.9936 411.583 57.5358 412.361 56.6203C413.14 55.7047 413.529 54.4573 413.529 52.878Z" fill="white"/>
<path d="M425.936 43.7799H430.64V45.4622H430.708C431.487 44.684 432.288 44.1232 433.112 43.7799C433.958 43.4366 434.92 43.2649 435.996 43.2649C437.575 43.2649 438.937 43.7341 440.081 44.6726C441.226 45.5881 442.027 46.8469 442.484 48.4491L437.884 49.9598C437.357 48.472 436.27 47.7282 434.622 47.7282C433.386 47.7282 432.448 48.0944 431.807 48.8268C431.166 49.5363 430.846 50.5205 430.846 51.7794V61.9762H425.936V43.7799Z" fill="white"/>
<path d="M458.016 48.1745V55.4873C458.016 56.1053 458.153 56.5516 458.428 56.8263C458.726 57.1009 459.206 57.2383 459.87 57.2383H464.024V61.9762H459.424C457.41 61.9762 455.853 61.5069 454.755 60.5685C453.656 59.6072 453.107 58.2453 453.107 56.4829V48.1745H448.643V43.7799H453.107V39.145H458.016V43.7799H465.157V48.1745H458.016Z" fill="white"/>
</svg>
