<svg width="465.157" height="73.8151" viewBox="0 0 465.157 73.8151" fill="none" xmlns="http://www.w3.org/2000/svg">
<path d="M21.61 55.9428V73.8151L0 42.127L21.61 55.9428Z" fill="#0DAFD2"/>
<path d="M43.2209 42.127L21.6094 73.8151V55.9428L43.2209 42.127Z" fill="#667BBC"/>
<path d="M43.2209 37.662L21.6094 25.3345V51.4793L43.2209 37.662Z" fill="#9E69AC"/>
<path d="M43.2209 37.662L21.6094 0V25.3345L43.2209 37.662Z" fill="#F58B77"/>
<path d="M21.61 0V25.3345L0 37.662L21.61 0Z" fill="#F9EC7B"/>
<path d="M21.61 25.3345V51.4793L0 37.662L21.61 25.3345Z" fill="#54BC7A"/>
<path d="M65.1484 19.2365C65.1484 17.8119 65.4402 16.5504 66.0238 15.4519C66.6074 14.3534 67.4226 13.5038 68.4696 12.903C69.5166 12.3023 70.7267 12.0019 72.0998 12.0019C73.4214 12.0019 74.5971 12.3109 75.6269 12.9288C76.6739 13.5467 77.4892 14.4135 78.0728 15.5291C78.6564 16.6448 78.9481 17.9149 78.9481 19.3395V20.4208H68.8301C68.8816 21.279 69.2077 21.9741 69.8084 22.5062C70.4091 23.0383 71.1987 23.3043 72.177 23.3043C72.8636 23.3043 73.4986 23.1584 74.0822 22.8666C74.6658 22.5577 75.3008 22.0342 75.9874 21.2962L78.2788 23.639C77.4892 24.5144 76.5795 25.2009 75.5497 25.6987C74.5199 26.1793 73.3957 26.4196 72.177 26.4196C70.7868 26.4196 69.5595 26.1192 68.4954 25.5185C67.4312 24.9177 66.6074 24.0767 66.0238 22.9954C65.4402 21.8969 65.1484 20.6439 65.1484 19.2365ZM75.2408 17.7432C75.1721 16.988 74.8374 16.3616 74.2367 15.8638C73.6531 15.3661 72.9408 15.1172 72.0998 15.1172C71.2244 15.1172 70.5035 15.3575 69.9371 15.8381C69.3707 16.3186 69.0189 16.9537 68.8816 17.7432H75.2408Z" fill="#989898"/>
<path d="M90.8527 15.6836V21.1674C90.8527 21.6308 90.9557 21.9655 91.1617 22.1715C91.3848 22.3775 91.7452 22.4805 92.243 22.4805H95.3582V26.0334H91.9083C90.3979 26.0334 89.2307 25.6815 88.4069 24.9778C87.583 24.2569 87.1711 23.2357 87.1711 21.9141V15.6836H83.8241V12.3881H87.1711V8.91246H90.8527V12.3881H96.2078V15.6836H90.8527Z" fill="#989898"/>
<path d="M101.599 7.23899H105.28V13.6497H105.332C106.293 12.5512 107.606 12.0019 109.271 12.0019C110.266 12.0019 111.15 12.2422 111.923 12.7228C112.695 13.2034 113.296 13.8814 113.725 14.7567C114.154 15.6321 114.369 16.6448 114.369 17.7947V26.0334H110.687V18.2839C110.687 17.3742 110.455 16.6619 109.992 16.147C109.528 15.6321 108.893 15.3746 108.087 15.3746C107.211 15.3746 106.525 15.6321 106.027 16.147C105.529 16.6448 105.28 17.3399 105.28 18.2324V26.0334H101.599V7.23899Z" fill="#989898"/>
<path d="M118.858 19.2365C118.858 17.8119 119.15 16.5504 119.734 15.4519C120.317 14.3534 121.133 13.5038 122.18 12.903C123.227 12.3023 124.437 12.0019 125.81 12.0019C127.131 12.0019 128.307 12.3109 129.337 12.9288C130.384 13.5467 131.199 14.4135 131.783 15.5291C132.366 16.6448 132.658 17.9149 132.658 19.3395V20.4208H122.54C122.592 21.279 122.918 21.9741 123.518 22.5062C124.119 23.0383 124.909 23.3043 125.887 23.3043C126.574 23.3043 127.209 23.1584 127.792 22.8666C128.376 22.5577 129.011 22.0342 129.697 21.2962L131.989 23.639C131.199 24.5144 130.29 25.2009 129.26 25.6987C128.23 26.1793 127.106 26.4196 125.887 26.4196C124.497 26.4196 123.27 26.1192 122.205 25.5185C121.141 24.9177 120.317 24.0767 119.734 22.9954C119.15 21.8969 118.858 20.6439 118.858 19.2365ZM128.951 17.7432C128.882 16.988 128.547 16.3616 127.947 15.8638C127.363 15.3661 126.651 15.1172 125.81 15.1172C124.934 15.1172 124.214 15.3575 123.647 15.8381C123.081 16.3186 122.729 16.9537 122.592 17.7432H128.951Z" fill="#989898"/>
<path d="M138.41 12.3881H141.937V13.6497H141.988C142.572 13.0661 143.172 12.6456 143.79 12.3881C144.425 12.1307 145.146 12.0019 145.953 12.0019C147.137 12.0019 148.159 12.3538 149.017 13.0575C149.875 13.7441 150.476 14.6881 150.819 15.8896L147.369 17.0224C146.974 15.9067 146.159 15.3489 144.923 15.3489C143.996 15.3489 143.293 15.6235 142.812 16.1728C142.331 16.7048 142.091 17.4429 142.091 18.3869V26.0334H138.41V12.3881Z" fill="#989898"/>
<path d="M154.665 19.2365C154.665 17.8119 154.957 16.5504 155.54 15.4519C156.124 14.3534 156.939 13.5038 157.986 12.903C159.033 12.3023 160.243 12.0019 161.616 12.0019C162.938 12.0019 164.114 12.3109 165.144 12.9288C166.191 13.5467 167.006 14.4135 167.589 15.5291C168.173 16.6448 168.465 17.9149 168.465 19.3395V20.4208H158.347C158.398 21.279 158.724 21.9741 159.325 22.5062C159.926 23.0383 160.715 23.3043 161.694 23.3043C162.38 23.3043 163.015 23.1584 163.599 22.8666C164.182 22.5577 164.818 22.0342 165.504 21.2962L167.795 23.639C167.006 24.5144 166.096 25.2009 165.066 25.6987C164.037 26.1793 162.912 26.4196 161.694 26.4196C160.303 26.4196 159.076 26.1192 158.012 25.5185C156.948 24.9177 156.124 24.0767 155.54 22.9954C154.957 21.8969 154.665 20.6439 154.665 19.2365ZM164.757 17.7432C164.689 16.988 164.354 16.3616 163.753 15.8638C163.17 15.3661 162.457 15.1172 161.616 15.1172C160.741 15.1172 160.02 15.3575 159.454 15.8381C158.887 16.3186 158.536 16.9537 158.398 17.7432H164.757Z" fill="#989898"/>
<path d="M173.341 21.3991V12.3881H177.022V20.5495C177.022 22.2144 177.846 23.0469 179.494 23.0469C180.232 23.0469 180.816 22.8237 181.245 22.3775C181.691 21.9141 181.914 21.3047 181.914 20.5495V12.3881H185.596V26.0334H182.069V24.8233H182.017C181.64 25.3039 181.116 25.6901 180.447 25.9819C179.794 26.2737 179.108 26.4196 178.387 26.4196C176.774 26.4196 175.529 25.9819 174.654 25.1065C173.778 24.214 173.341 22.9782 173.341 21.3991Z" fill="#989898"/>
<path d="M190.086 12.3881H193.33V13.5724H193.381C193.673 13.109 194.042 12.7572 194.488 12.5169C194.952 12.2594 195.458 12.1307 196.007 12.1307C197.088 12.1307 197.955 12.637 198.607 13.6497H198.659C199.345 12.637 200.289 12.1307 201.491 12.1307C202.486 12.1307 203.293 12.4825 203.911 13.1863C204.529 13.89 204.838 14.8082 204.838 15.941V26.0334H201.439V16.5847C201.439 16.1899 201.336 15.8896 201.13 15.6836C200.925 15.4776 200.633 15.3746 200.255 15.3746C199.895 15.3746 199.603 15.4948 199.38 15.7351C199.174 15.9582 199.071 16.2672 199.071 16.6619V26.0334H195.853V16.5847C195.853 16.2071 195.75 15.9153 195.544 15.7093C195.355 15.4862 195.08 15.3746 194.72 15.3746C194.342 15.3746 194.042 15.4948 193.819 15.7351C193.596 15.9582 193.484 16.2672 193.484 16.6619V26.0334H190.086V12.3881Z" fill="#989898"/>
<path d="M230.398 17.2026H226.793V13.9071H230.398V11.899C230.398 10.6975 230.793 9.75349 231.582 9.06694C232.389 8.36322 233.496 8.01136 234.903 8.01136H238.868V11.2811H235.341C234.98 11.2811 234.706 11.3755 234.517 11.5643C234.328 11.7531 234.234 12.0191 234.234 12.3624V13.9071H239.692V17.2026H234.234V26.0334H230.398V17.2026Z" fill="#989898"/>
<path d="M244.182 19.2108C244.182 17.8033 244.474 16.5589 245.057 15.4776C245.641 14.3791 246.456 13.5295 247.503 12.9288C248.567 12.3109 249.777 12.0019 251.133 12.0019C252.506 12.0019 253.716 12.3109 254.763 12.9288C255.827 13.5295 256.651 14.3791 257.235 15.4776C257.818 16.5589 258.11 17.8033 258.11 19.2108C258.11 20.6182 257.818 21.8711 257.235 22.9696C256.651 24.0509 255.827 24.9006 254.763 25.5185C253.716 26.1192 252.506 26.4196 251.133 26.4196C249.777 26.4196 248.567 26.1192 247.503 25.5185C246.456 24.9006 245.641 24.0509 245.057 22.9696C244.474 21.8711 244.182 20.6182 244.182 19.2108ZM254.429 19.2108C254.429 18.0093 254.137 17.0739 253.553 16.4045C252.987 15.7179 252.18 15.3746 251.133 15.3746C250.103 15.3746 249.297 15.7179 248.713 16.4045C248.147 17.0739 247.863 18.0093 247.863 19.2108C247.863 20.4122 248.147 21.3562 248.713 22.0428C249.297 22.7122 250.103 23.0469 251.133 23.0469C252.163 23.0469 252.97 22.7036 253.553 22.017C254.137 21.3305 254.429 20.3951 254.429 19.2108Z" fill="#989898"/>
<path d="M262.857 21.3991V12.3881H266.539V20.5495C266.539 22.2144 267.363 23.0469 269.011 23.0469C269.749 23.0469 270.332 22.8237 270.761 22.3775C271.208 21.9141 271.431 21.3047 271.431 20.5495V12.3881H275.112V26.0334H271.585V24.8233H271.534C271.156 25.3039 270.633 25.6901 269.963 25.9819C269.311 26.2737 268.625 26.4196 267.904 26.4196C266.29 26.4196 265.046 25.9819 264.171 25.1065C263.295 24.214 262.857 22.9782 262.857 21.3991Z" fill="#989898"/>
<path d="M280.632 12.3881H284.314V13.6754H284.365C284.914 13.1262 285.507 12.7142 286.142 12.4396C286.777 12.1478 287.498 12.0019 288.304 12.0019C289.197 12.0019 290.029 12.2165 290.802 12.6456C291.574 13.0575 292.2 13.7012 292.681 14.5765C293.162 15.4347 293.402 16.5075 293.402 17.7947V26.0334H289.72V18.2839C289.72 17.4086 289.497 16.7048 289.051 16.1728C288.605 15.6407 287.961 15.3746 287.12 15.3746C286.245 15.3746 285.558 15.6321 285.06 16.147C284.563 16.6448 284.314 17.3399 284.314 18.2324V26.0334H280.632V12.3881Z" fill="#989898"/>
<path d="M297.609 19.2108C297.609 17.8376 297.875 16.6019 298.407 15.5034C298.939 14.4049 299.685 13.5467 300.647 12.9288C301.608 12.3109 302.698 12.0019 303.916 12.0019C305.461 12.0019 306.671 12.4139 307.546 13.2377H307.598V7.23899H311.28V26.0334H307.881V24.8491H307.83C306.817 25.8961 305.495 26.4196 303.865 26.4196C302.663 26.4196 301.582 26.1192 300.621 25.5185C299.677 24.9177 298.939 24.0767 298.407 22.9954C297.875 21.8969 297.609 20.6353 297.609 19.2108ZM307.598 20.0861V18.3097C307.598 17.7947 307.461 17.3142 307.186 16.8679C306.911 16.4216 306.525 16.0612 306.027 15.7866C305.547 15.5119 305.006 15.3746 304.405 15.3746C303.444 15.3746 302.68 15.7265 302.114 16.4302C301.565 17.1168 301.29 18.0436 301.29 19.2108C301.29 20.3607 301.573 21.2876 302.14 21.9913C302.706 22.695 303.453 23.0469 304.38 23.0469C305.307 23.0469 306.07 22.7637 306.671 22.1973C307.289 21.6137 307.598 20.91 307.598 20.0861Z" fill="#989898"/>
<path d="M316.645 22.3775C316.645 21.1074 317.074 20.1204 317.932 19.4167C318.807 18.713 320.258 18.1981 322.283 17.872C323.347 17.7003 324.068 17.5115 324.446 17.3056C324.84 17.0824 325.038 16.7907 325.038 16.4302C325.038 16.0183 324.849 15.6922 324.471 15.4519C324.094 15.2116 323.579 15.0914 322.927 15.0914C322.189 15.0914 321.545 15.3146 320.996 15.7608C320.464 16.2071 320.12 16.7992 319.966 17.5373L316.542 16.7649C316.713 15.8381 317.1 15.0142 317.7 14.2933C318.301 13.5724 319.056 13.0146 319.966 12.6198C320.876 12.2079 321.863 12.0019 322.927 12.0019C324.677 12.0019 326.076 12.4911 327.123 13.4695C328.17 14.4478 328.694 15.7522 328.694 17.3828V26.0334H325.398V24.5144H325.347C324.952 25.1151 324.394 25.5871 323.673 25.9304C322.97 26.2565 322.171 26.4196 321.279 26.4196C320.386 26.4196 319.588 26.2479 318.885 25.9046C318.181 25.5614 317.632 25.0808 317.237 24.4629C316.842 23.845 316.645 23.1498 316.645 22.3775ZM325.192 20.9615V19.4167H325.141C324.986 19.6742 324.729 19.8801 324.368 20.0346C324.008 20.1891 323.442 20.3436 322.669 20.498C321.708 20.704 321.047 20.9271 320.687 21.1674C320.326 21.3906 320.146 21.7081 320.146 22.12C320.146 22.5148 320.301 22.8152 320.61 23.0211C320.936 23.2271 321.399 23.3301 322 23.3301C322.549 23.3301 323.073 23.2271 323.57 23.0211C324.068 22.798 324.463 22.5062 324.755 22.1458C325.046 21.7682 325.192 21.3734 325.192 20.9615Z" fill="#989898"/>
<path d="M341.499 15.6836V21.1674C341.499 21.6308 341.602 21.9655 341.808 22.1715C342.031 22.3775 342.392 22.4805 342.89 22.4805H346.005V26.0334H342.555C341.045 26.0334 339.877 25.6815 339.054 24.9778C338.23 24.2569 337.818 23.2357 337.818 21.9141V15.6836H334.471V12.3881H337.818V8.91246H341.499V12.3881H346.854V15.6836H341.499Z" fill="#989898"/>
<path d="M365.273 22.6607V26.0334H351.859V22.6607H356.725V15.7608H352.117V12.3881H360.407V22.6607H365.273ZM356.648 6.62109H360.433V10.2512H356.648V6.62109Z" fill="#989898"/>
<path d="M369.505 19.2108C369.505 17.8033 369.797 16.5589 370.38 15.4776C370.964 14.3791 371.779 13.5295 372.826 12.9288C373.89 12.3109 375.101 12.0019 376.456 12.0019C377.83 12.0019 379.04 12.3109 380.087 12.9288C381.151 13.5295 381.975 14.3791 382.558 15.4776C383.142 16.5589 383.434 17.8033 383.434 19.2108C383.434 20.6182 383.142 21.8711 382.558 22.9696C381.975 24.0509 381.151 24.9006 380.087 25.5185C379.04 26.1192 377.83 26.4196 376.456 26.4196C375.101 26.4196 373.89 26.1192 372.826 25.5185C371.779 24.9006 370.964 24.0509 370.38 22.9696C369.797 21.8711 369.505 20.6182 369.505 19.2108ZM379.752 19.2108C379.752 18.0093 379.46 17.0739 378.877 16.4045C378.31 15.7179 377.503 15.3746 376.456 15.3746C375.427 15.3746 374.62 15.7179 374.036 16.4045C373.47 17.0739 373.187 18.0093 373.187 19.2108C373.187 20.4122 373.47 21.3562 374.036 22.0428C374.62 22.7122 375.427 23.0469 376.456 23.0469C377.486 23.0469 378.293 22.7036 378.877 22.017C379.46 21.3305 379.752 20.3951 379.752 19.2108Z" fill="#989898"/>
<path d="M388.052 12.3881H391.734V13.6754H391.785C392.334 13.1262 392.927 12.7142 393.562 12.4396C394.197 12.1478 394.918 12.0019 395.724 12.0019C396.617 12.0019 397.449 12.2165 398.222 12.6456C398.994 13.0575 399.62 13.7012 400.101 14.5765C400.582 15.4347 400.822 16.5075 400.822 17.7947V26.0334H397.14V18.2839C397.14 17.4086 396.917 16.7048 396.471 16.1728C396.025 15.6407 395.381 15.3746 394.54 15.3746C393.665 15.3746 392.978 15.6321 392.48 16.147C391.983 16.6448 391.734 17.3399 391.734 18.2324V26.0334H388.052V12.3881Z" fill="#989898"/>
<path d="M65.6211 52.9129C65.6211 51.0131 66.0102 49.3308 66.7884 47.866C67.5666 46.4011 68.6538 45.2681 70.05 44.467C71.4462 43.666 73.0598 43.2654 74.8909 43.2654C76.6533 43.2654 78.2211 43.6774 79.5944 44.5014C80.9906 45.3254 82.0778 46.4812 82.856 47.969C83.6342 49.4567 84.0233 51.1504 84.0233 53.0502V54.4921H70.5306C70.5993 55.6366 71.0342 56.5635 71.8353 57.2731C72.6364 57.9826 73.6892 58.3374 74.9939 58.3374C75.9094 58.3374 76.7563 58.1428 77.5345 57.7537C78.3127 57.3417 79.1596 56.6437 80.0751 55.6595L83.1307 58.7837C82.0778 59.951 80.8647 60.8666 79.4914 61.5303C78.1181 62.1712 76.6189 62.4916 74.9939 62.4916C73.1399 62.4916 71.5034 62.0911 70.0843 61.29C68.6652 60.4889 67.5666 59.3674 66.7884 57.9254C66.0102 56.4605 65.6211 54.7897 65.6211 52.9129ZM79.0794 50.9216C78.9879 49.9145 78.5416 49.0791 77.7405 48.4153C76.9623 47.7515 76.0124 47.4196 74.8909 47.4196C73.7236 47.4196 72.7623 47.7401 72.0069 48.381C71.2516 49.0218 70.7824 49.8687 70.5993 50.9216H79.0794Z" fill="#36364C"/>
<path d="M89.4956 52.8785C89.4956 51.0017 89.8847 49.3423 90.6629 47.9003C91.4411 46.4354 92.5283 45.3025 93.9245 44.5014C95.3436 43.6774 96.9572 43.2654 98.7654 43.2654C100.894 43.2654 102.725 43.8491 104.259 45.0164C105.792 46.1837 106.834 47.7515 107.383 49.7199L102.645 51.0246C102.416 50.0175 101.981 49.2278 101.34 48.6556C100.699 48.0605 99.8411 47.763 98.7654 47.763C97.3921 47.763 96.3163 48.2207 95.5381 49.1363C94.7828 50.0289 94.4052 51.2763 94.4052 52.8785C94.4052 54.4807 94.7828 55.7396 95.5381 56.6551C96.3163 57.5477 97.3921 57.9941 98.7654 57.9941C99.8411 57.9941 100.699 57.708 101.34 57.1358C101.981 56.5407 102.416 55.7396 102.645 54.7325L107.383 56.0371C106.834 58.0055 105.792 59.5734 104.259 60.7407C102.725 61.908 100.894 62.4916 98.7654 62.4916C96.9572 62.4916 95.3436 62.0911 93.9245 61.29C92.5283 60.466 91.4411 59.333 90.6629 57.8911C89.8847 56.4262 89.4956 54.7554 89.4956 52.8785Z" fill="#36364C"/>
<path d="M113.37 52.8785C113.37 51.0017 113.759 49.3423 114.537 47.9003C115.316 46.4354 116.403 45.3025 117.799 44.5014C119.218 43.6774 120.832 43.2654 122.64 43.2654C124.471 43.2654 126.085 43.6774 127.481 44.5014C128.9 45.3025 129.999 46.4354 130.777 47.9003C131.555 49.3423 131.944 51.0017 131.944 52.8785C131.944 54.7554 131.555 56.4262 130.777 57.8911C129.999 59.333 128.9 60.466 127.481 61.29C126.085 62.0911 124.471 62.4916 122.64 62.4916C120.832 62.4916 119.218 62.0911 117.799 61.29C116.403 60.466 115.316 59.333 114.537 57.8911C113.759 56.4262 113.37 54.7554 113.37 52.8785ZM127.034 52.8785C127.034 51.2763 126.645 50.0289 125.867 49.1363C125.112 48.2207 124.036 47.763 122.64 47.763C121.267 47.763 120.191 48.2207 119.413 49.1363C118.657 50.0289 118.28 51.2763 118.28 52.8785C118.28 54.4807 118.657 55.7396 119.413 56.6551C120.191 57.5477 121.267 57.9941 122.64 57.9941C124.013 57.9941 125.089 57.5363 125.867 56.6208C126.645 55.7052 127.034 54.4578 127.034 52.8785Z" fill="#36364C"/>
<path d="M137.725 55.9684L142.189 54.9385C142.509 56.0829 143.081 56.9641 143.905 57.5821C144.752 58.1772 145.816 58.4747 147.098 58.4747C148.242 58.4747 149.112 58.3374 149.707 58.0627C150.325 57.7881 150.634 57.399 150.634 56.8954C150.634 56.3232 150.325 55.8883 149.707 55.5908C149.089 55.2704 147.956 54.9499 146.308 54.6295C143.608 54.1259 141.674 53.4278 140.506 52.5352C139.362 51.6425 138.79 50.418 138.79 48.8616C138.79 47.763 139.11 46.7902 139.751 45.9433C140.392 45.0965 141.284 44.4442 142.429 43.9864C143.596 43.5057 144.924 43.2654 146.411 43.2654C148.448 43.2654 150.257 43.769 151.836 44.776C153.415 45.7831 154.48 47.1221 155.029 48.7929L150.806 50.1662C150.463 49.2507 149.902 48.5412 149.124 48.0376C148.368 47.5341 147.453 47.2823 146.377 47.2823C145.484 47.2823 144.775 47.4311 144.248 47.7286C143.722 48.0033 143.459 48.3924 143.459 48.8959C143.459 49.3537 143.745 49.7314 144.317 50.0289C144.912 50.3036 145.977 50.5782 147.51 50.8529C150.302 51.3793 152.294 52.1118 153.484 53.0502C154.697 53.9657 155.304 55.2475 155.304 56.8954C155.304 58.017 154.96 59.0012 154.274 59.848C153.61 60.6949 152.649 61.3472 151.39 61.805C150.154 62.2627 148.723 62.4916 147.098 62.4916C144.626 62.4916 142.566 61.9194 140.918 60.775C139.293 59.6306 138.229 58.0284 137.725 55.9684Z" fill="#36364C"/>
<path d="M167.951 61.2557L160.707 43.7804H165.857L170.389 55.4191H170.458L174.955 43.7804H180.105L169.531 69.7015H164.415L167.951 61.2557Z" fill="#36364C"/>
<path d="M185.474 55.9684L189.938 54.9385C190.258 56.0829 190.83 56.9641 191.654 57.5821C192.501 58.1772 193.565 58.4747 194.847 58.4747C195.992 58.4747 196.861 58.3374 197.456 58.0627C198.074 57.7881 198.383 57.399 198.383 56.8954C198.383 56.3232 198.074 55.8883 197.456 55.5908C196.838 55.2704 195.705 54.9499 194.057 54.6295C191.357 54.1259 189.423 53.4278 188.255 52.5352C187.111 51.6425 186.539 50.418 186.539 48.8616C186.539 47.763 186.859 46.7902 187.5 45.9433C188.141 45.0965 189.033 44.4442 190.178 43.9864C191.345 43.5057 192.673 43.2654 194.16 43.2654C196.198 43.2654 198.006 43.769 199.585 44.776C201.164 45.7831 202.229 47.1221 202.778 48.7929L198.555 50.1662C198.212 49.2507 197.651 48.5412 196.873 48.0376C196.117 47.5341 195.202 47.2823 194.126 47.2823C193.233 47.2823 192.524 47.4311 191.998 47.7286C191.471 48.0033 191.208 48.3924 191.208 48.8959C191.208 49.3537 191.494 49.7314 192.066 50.0289C192.661 50.3036 193.726 50.5782 195.259 50.8529C198.051 51.3793 200.043 52.1118 201.233 53.0502C202.446 53.9657 203.053 55.2475 203.053 56.8954C203.053 58.017 202.709 59.0012 202.023 59.848C201.359 60.6949 200.398 61.3472 199.139 61.805C197.903 62.2627 196.472 62.4916 194.847 62.4916C192.375 62.4916 190.315 61.9194 188.667 60.775C187.042 59.6306 185.978 58.0284 185.474 55.9684Z" fill="#36364C"/>
<path d="M219.271 48.175V55.4878C219.271 56.1058 219.408 56.5521 219.683 56.8268C219.98 57.1014 220.461 57.2388 221.125 57.2388H225.279V61.9766H220.679C218.664 61.9766 217.108 61.5074 216.009 60.569C214.911 59.6077 214.361 58.2458 214.361 56.4834V48.175H209.898V43.7804H214.361V39.1455H219.271V43.7804H226.412V48.175H219.271Z" fill="#36364C"/>
<path d="M232.743 52.9129C232.743 51.0131 233.132 49.3308 233.91 47.866C234.688 46.4011 235.775 45.2681 237.172 44.467C238.568 43.666 240.181 43.2654 242.012 43.2654C243.775 43.2654 245.343 43.6774 246.716 44.5014C248.112 45.3254 249.199 46.4812 249.978 47.969C250.756 49.4567 251.145 51.1504 251.145 53.0502V54.4921H237.652C237.721 55.6366 238.156 56.5635 238.957 57.2731C239.758 57.9826 240.811 58.3374 242.116 58.3374C243.031 58.3374 243.878 58.1428 244.656 57.7537C245.434 57.3417 246.281 56.6437 247.197 55.6595L250.252 58.7837C249.199 59.951 247.986 60.8666 246.613 61.5303C245.24 62.1712 243.741 62.4916 242.116 62.4916C240.262 62.4916 238.625 62.0911 237.206 61.29C235.787 60.4889 234.688 59.3674 233.91 57.9254C233.132 56.4605 232.743 54.7897 232.743 52.9129ZM246.201 50.9216C246.11 49.9145 245.663 49.0791 244.862 48.4153C244.084 47.7515 243.134 47.4196 242.012 47.4196C240.845 47.4196 239.884 47.7401 239.129 48.381C238.373 49.0218 237.904 49.8687 237.721 50.9216H246.201Z" fill="#36364C"/>
<path d="M256.102 43.7804H260.428V45.3597H260.497C260.886 44.7417 261.378 44.2725 261.973 43.9521C262.591 43.6087 263.266 43.4371 263.999 43.4371C265.441 43.4371 266.597 44.1123 267.466 45.4627H267.535C268.451 44.1123 269.709 43.4371 271.312 43.4371C272.639 43.4371 273.715 43.9063 274.539 44.8447C275.363 45.7831 275.775 47.0077 275.775 48.5183V61.9766H271.243V49.3766C271.243 48.8502 271.106 48.4496 270.831 48.175C270.556 47.9003 270.167 47.763 269.664 47.763C269.183 47.763 268.794 47.9232 268.496 48.2436C268.222 48.5412 268.084 48.9532 268.084 49.4796V61.9766H263.793V49.3766C263.793 48.8731 263.655 48.484 263.381 48.2093C263.129 47.9117 262.763 47.763 262.282 47.763C261.779 47.763 261.378 47.9232 261.08 48.2436C260.783 48.5412 260.634 48.9532 260.634 49.4796V61.9766H256.102V43.7804Z" fill="#36364C"/>
<path d="M304.847 55.9684L309.31 54.9385C309.631 56.0829 310.203 56.9641 311.027 57.5821C311.874 58.1772 312.938 58.4747 314.22 58.4747C315.364 58.4747 316.234 58.3374 316.829 58.0627C317.447 57.7881 317.756 57.399 317.756 56.8954C317.756 56.3232 317.447 55.8883 316.829 55.5908C316.211 55.2704 315.078 54.9499 313.43 54.6295C310.729 54.1259 308.795 53.4278 307.628 52.5352C306.483 51.6425 305.911 50.418 305.911 48.8616C305.911 47.763 306.232 46.7902 306.873 45.9433C307.513 45.0965 308.406 44.4442 309.55 43.9864C310.718 43.5057 312.045 43.2654 313.533 43.2654C315.57 43.2654 317.378 43.769 318.958 44.776C320.537 45.7831 321.601 47.1221 322.151 48.7929L317.928 50.1662C317.584 49.2507 317.024 48.5412 316.245 48.0376C315.49 47.5341 314.574 47.2823 313.499 47.2823C312.606 47.2823 311.897 47.4311 311.37 47.7286C310.844 48.0033 310.58 48.3924 310.58 48.8959C310.58 49.3537 310.867 49.7314 311.439 50.0289C312.034 50.3036 313.098 50.5782 314.632 50.8529C317.424 51.3793 319.415 52.1118 320.606 53.0502C321.819 53.9657 322.425 55.2475 322.425 56.8954C322.425 58.017 322.082 59.0012 321.395 59.848C320.731 60.6949 319.77 61.3472 318.511 61.805C317.275 62.2627 315.845 62.4916 314.22 62.4916C311.748 62.4916 309.688 61.9194 308.04 60.775C306.415 59.6306 305.35 58.0284 304.847 55.9684Z" fill="#36364C"/>
<path d="M329.271 55.7968V43.7804H334.18V54.6638C334.18 56.884 335.279 57.9941 337.476 57.9941C338.46 57.9941 339.239 57.6965 339.811 57.1014C340.406 56.4834 340.703 55.6709 340.703 54.6638V43.7804H345.613V61.9766H340.909V60.363H340.841C340.337 61.0039 339.639 61.5189 338.747 61.908C337.877 62.2971 336.961 62.4916 336 62.4916C333.848 62.4916 332.189 61.908 331.022 60.7407C329.854 59.5505 329.271 57.9025 329.271 55.7968Z" fill="#36364C"/>
<path d="M352.802 43.7804H357.505V45.3597H357.574C358.925 43.9635 360.63 43.2654 362.69 43.2654C364.292 43.2654 365.722 43.666 366.981 44.467C368.263 45.2681 369.259 46.4011 369.968 47.866C370.678 49.3079 371.033 50.9788 371.033 52.8785C371.033 54.7096 370.678 56.3575 369.968 57.8224C369.259 59.2873 368.263 60.4317 366.981 61.2557C365.7 62.0796 364.246 62.4916 362.621 62.4916C361.591 62.4916 360.664 62.3314 359.84 62.011C359.016 61.6905 358.329 61.2557 357.78 60.7063H357.711V69.7015H352.802V43.7804ZM366.123 52.8785C366.123 51.3221 365.734 50.0861 364.956 49.1706C364.177 48.2322 363.102 47.763 361.728 47.763C360.63 47.763 359.68 48.1521 358.879 48.9303C358.101 49.6856 357.711 50.6126 357.711 51.7112V54.0802C357.711 54.7668 357.895 55.4077 358.261 56.0028C358.627 56.5979 359.131 57.0785 359.771 57.4447C360.435 57.811 361.168 57.9941 361.969 57.9941C363.25 57.9941 364.258 57.5363 364.99 56.6208C365.745 55.6823 366.123 54.4349 366.123 52.8785Z" fill="#36364C"/>
<path d="M376.676 43.7804H381.38V45.3597H381.449C382.799 43.9635 384.504 43.2654 386.564 43.2654C388.166 43.2654 389.597 43.666 390.856 44.467C392.138 45.2681 393.133 46.4011 393.843 47.866C394.552 49.3079 394.907 50.9788 394.907 52.8785C394.907 54.7096 394.552 56.3575 393.843 57.8224C393.133 59.2873 392.138 60.4317 390.856 61.2557C389.574 62.0796 388.121 62.4916 386.496 62.4916C385.466 62.4916 384.539 62.3314 383.715 62.011C382.891 61.6905 382.204 61.2557 381.655 60.7063H381.586V69.7015H376.676V43.7804ZM389.997 52.8785C389.997 51.3221 389.608 50.0861 388.83 49.1706C388.052 48.2322 386.976 47.763 385.603 47.763C384.504 47.763 383.554 48.1521 382.753 48.9303C381.975 49.6856 381.586 50.6126 381.586 51.7112V54.0802C381.586 54.7668 381.769 55.4077 382.135 56.0028C382.502 56.5979 383.005 57.0785 383.646 57.4447C384.31 57.811 385.042 57.9941 385.843 57.9941C387.125 57.9941 388.132 57.5363 388.865 56.6208C389.62 55.6823 389.997 54.4349 389.997 52.8785Z" fill="#36364C"/>
<path d="M399.864 52.8785C399.864 51.0017 400.253 49.3423 401.032 47.9003C401.81 46.4354 402.897 45.3025 404.293 44.5014C405.712 43.6774 407.326 43.2654 409.134 43.2654C410.965 43.2654 412.579 43.6774 413.975 44.5014C415.394 45.3025 416.493 46.4354 417.271 47.9003C418.049 49.3423 418.438 51.0017 418.438 52.8785C418.438 54.7554 418.049 56.4262 417.271 57.8911C416.493 59.333 415.394 60.466 413.975 61.29C412.579 62.0911 410.965 62.4916 409.134 62.4916C407.326 62.4916 405.712 62.0911 404.293 61.29C402.897 60.466 401.81 59.333 401.032 57.8911C400.253 56.4262 399.864 54.7554 399.864 52.8785ZM413.529 52.8785C413.529 51.2763 413.14 50.0289 412.361 49.1363C411.606 48.2207 410.53 47.763 409.134 47.763C407.761 47.763 406.685 48.2207 405.907 49.1363C405.152 50.0289 404.774 51.2763 404.774 52.8785C404.774 54.4807 405.152 55.7396 405.907 56.6551C406.685 57.5477 407.761 57.9941 409.134 57.9941C410.507 57.9941 411.583 57.5363 412.361 56.6208C413.14 55.7052 413.529 54.4578 413.529 52.8785Z" fill="#36364C"/>
<path d="M425.936 43.7804H430.64V45.4627H430.708C431.487 44.6845 432.288 44.1237 433.112 43.7804C433.958 43.4371 434.92 43.2654 435.996 43.2654C437.575 43.2654 438.937 43.7346 440.081 44.673C441.226 45.5886 442.027 46.8474 442.484 48.4496L437.884 49.9603C437.357 48.4725 436.27 47.7286 434.622 47.7286C433.386 47.7286 432.448 48.0949 431.807 48.8273C431.166 49.5368 430.846 50.521 430.846 51.7799V61.9766H425.936V43.7804Z" fill="#36364C"/>
<path d="M458.016 48.175V55.4878C458.016 56.1058 458.153 56.5521 458.428 56.8268C458.726 57.1014 459.206 57.2388 459.87 57.2388H464.024V61.9766H459.424C457.41 61.9766 455.853 61.5074 454.755 60.569C453.656 59.6077 453.107 58.2458 453.107 56.4834V48.175H448.643V43.7804H453.107V39.1455H458.016V43.7804H465.157V48.175H458.016Z" fill="#36364C"/>
</svg>
